<mxfile host="app.diagrams.net" modified="2024-01-14T09:36:33.823Z" agent="Mozilla/5.0 (Macintosh; Intel Mac OS X 10_15_7) AppleWebKit/605.1.15 (KHTML, like Gecko) Version/17.2.1 Safari/605.1.15" version="22.1.18" etag="OFEHt33TRXCVCyovIGIG" type="github">
  <diagram name="Trang-1" id="awGzFdns0ukxIlfDfDJ3">
    <mxGraphModel>
      <root>
        <mxCell id="0" />
        <mxCell id="1" parent="0" />
      </root>
    </mxGraphModel>
  </diagram>
</mxfile>
